<?xml version="1.0" encoding="UTF-8"?> <svg xmlns="http://www.w3.org/2000/svg" width="20" height="20" viewBox="0 0 20 20" fill="none"> <g clip-path="url(#clip0_258_321)"> <path d="M19.9905 10.2752C19.8402 15.7987 15.2406 20.1449 9.72515 19.9935C4.21049 19.8515 -0.145275 15.2405 0.0104177 9.72991C0.157928 4.20828 4.7591 -0.145335 10.2715 0.00676795C15.792 0.160919 20.1443 4.75599 19.9913 10.2788L19.9905 10.2752ZM13.9975 7.6594C13.9059 6.3228 12.7632 5.84174 11.3057 5.66936L11.3592 3.82019L10.2278 3.78589L10.1806 5.59657C9.88432 5.58504 9.57858 5.58583 9.27095 5.58383L9.31589 3.75702L8.18228 3.72706L8.13131 5.58463C7.88741 5.5814 7.65035 5.5773 7.41207 5.57347L5.85608 5.52903L5.82272 6.74019C5.82272 6.74019 6.65783 6.74567 6.64045 6.75974C7.10146 6.7753 7.24232 7.03995 7.28066 7.27214L7.14034 12.3557C7.10949 12.5033 7.0162 12.7306 6.69773 12.7201C6.71086 12.7332 5.87323 12.6988 5.87323 12.6988L5.60622 14.0434L7.07484 14.0834L7.87451 14.1139L7.8256 15.9954L8.95854 16.0223L9.01175 14.1604C9.3224 14.179 9.61795 14.1901 9.91229 14.1956L9.88542 16.0376L11.0192 16.0714L11.0684 14.1912C12.969 14.1354 14.3128 13.696 14.5274 11.9157C14.6978 10.4811 14.039 9.82363 12.9658 9.53333C13.6235 9.22142 14.05 8.6443 13.9865 7.66182L13.9975 7.6594ZM12.3032 11.6357C12.2701 13.0427 9.86923 12.8119 9.10174 12.7908L9.17001 10.3029C9.93945 10.3299 12.3452 10.1763 12.3032 11.6357ZM11.8772 8.1098C11.8419 9.39051 9.84395 9.18744 9.20289 9.16801L9.2643 6.90174C9.90009 6.91465 11.91 6.76503 11.8764 8.10614L11.8772 8.1098Z" fill="white"></path> </g> <defs> <clipPath id="clip0_258_321"> <rect width="20" height="20" fill="white"></rect> </clipPath> </defs> </svg> 