<?xml version="1.0" encoding="UTF-8"?> <svg xmlns="http://www.w3.org/2000/svg" width="20" height="20" viewBox="0 0 20 20" fill="none"> <circle cx="10" cy="10" r="10" fill="white"></circle> <path d="M14.1998 7.66673H12.4498L12.6715 7.58506C12.9761 7.47033 13.2465 7.28003 13.4573 7.03204C13.6681 6.78405 13.8123 6.48653 13.8765 6.16745C13.9407 5.84836 13.9226 5.5182 13.8241 5.20801C13.7255 4.89781 13.5497 4.61778 13.3132 4.39423C13.0747 4.17221 12.7834 4.01478 12.467 3.93686C12.1506 3.85895 11.8195 3.86314 11.5052 3.94902C11.1909 4.03491 10.9037 4.19965 10.6709 4.42763C10.438 4.65561 10.2673 4.93927 10.1748 5.25173L9.99984 5.91673L9.80734 5.2634C9.67415 4.78665 9.36085 4.38035 8.93363 4.13034C8.50641 3.88032 7.99873 3.80617 7.51785 3.92355C7.03697 4.04093 6.62056 4.34065 6.35658 4.75938C6.09259 5.17812 6.00173 5.68307 6.10317 6.16756C6.16495 6.48711 6.30795 6.78538 6.51841 7.03364C6.72888 7.28191 6.99971 7.47181 7.30484 7.58506L7.53234 7.66673H5.78234C5.35267 7.67284 4.94258 7.84744 4.64037 8.15292C4.33816 8.45841 4.16799 8.87035 4.1665 9.30006V14.2001C4.16804 14.6328 4.34062 15.0473 4.64659 15.3533C4.95257 15.6593 5.36712 15.8319 5.79984 15.8334H14.1998C14.6326 15.8319 15.0471 15.6593 15.3531 15.3533C15.6591 15.0473 15.8316 14.6328 15.8332 14.2001V9.30006C15.8316 8.86735 15.6591 8.4528 15.3531 8.14682C15.0471 7.84084 14.6326 7.66827 14.1998 7.66673ZM11.3123 5.58423C11.3454 5.46182 11.4104 5.35037 11.5005 5.26122C11.5907 5.17208 11.7029 5.10842 11.8257 5.07673C11.8917 5.05606 11.9607 5.04621 12.0298 5.04756C12.1375 5.04848 12.2436 5.07283 12.3408 5.11892C12.4381 5.16502 12.5241 5.23175 12.593 5.31448C12.6618 5.3972 12.7118 5.49393 12.7395 5.59794C12.7671 5.70195 12.7718 5.81073 12.7532 5.91673C12.73 6.04092 12.6748 6.15689 12.5929 6.25309C12.511 6.34929 12.4054 6.42237 12.2865 6.46506L10.8923 6.98423L11.3123 5.58423ZM7.2465 5.91673C7.22786 5.81073 7.23253 5.70195 7.26019 5.59794C7.28786 5.49393 7.33785 5.3972 7.4067 5.31448C7.47554 5.23175 7.56158 5.16502 7.65884 5.11892C7.75609 5.07283 7.86222 5.04848 7.96984 5.04756C8.03902 5.04621 8.10797 5.05606 8.174 5.07673C8.29678 5.10842 8.40897 5.17208 8.49914 5.26122C8.58931 5.35037 8.65425 5.46182 8.68734 5.58423L9.10734 7.00756L7.71317 6.50006C7.58967 6.4545 7.48094 6.3761 7.3987 6.2733C7.31647 6.17051 7.26385 6.04722 7.2465 5.91673ZM14.6665 14.2001C14.6665 14.3238 14.6173 14.4425 14.5298 14.53C14.4423 14.6176 14.3236 14.6667 14.1998 14.6667H5.79984C5.67607 14.6667 5.55737 14.6176 5.46985 14.53C5.38234 14.4425 5.33317 14.3238 5.33317 14.2001V11.1667H14.6665V14.2001ZM14.6665 10.0001H5.33317V9.30006C5.33317 9.17629 5.38234 9.0576 5.46985 8.97008C5.55737 8.88256 5.67607 8.8334 5.79984 8.8334H14.1998C14.3236 8.8334 14.4423 8.88256 14.5298 8.97008C14.6173 9.0576 14.6665 9.17629 14.6665 9.30006V10.0001Z" fill="#3F4044"></path> </svg> 