<?xml version="1.0" encoding="UTF-8"?> <svg xmlns="http://www.w3.org/2000/svg" width="30" height="30" viewBox="0 0 30 30" fill="none"> <path d="M29.7072 15.0644C29.7072 15.2109 29.7013 15.3574 29.7072 15.5038C29.7775 18.0351 29.0334 20.3613 27.7443 22.4941C25.3713 26.4198 21.8966 28.8632 17.3498 29.496C11.549 30.3046 6.82633 28.2656 3.28141 23.5956C1.74625 21.58 0.867346 19.2656 0.609533 16.7577C0.123205 11.9296 1.60563 7.78704 5.10953 4.4179C7.54703 2.07415 10.4884 0.732349 13.8517 0.486255C19.2306 0.0936772 23.6017 2.07415 26.9006 6.34563C28.424 8.32024 29.3263 10.582 29.6369 13.0605C29.7189 13.7226 29.6486 14.3964 29.6486 15.0702C29.6662 15.0644 29.6896 15.0644 29.7072 15.0644ZM12.1759 8.16204C11.6193 8.20305 10.7345 8.24407 9.84977 8.33782C8.53727 8.46672 7.24235 8.69524 5.98258 9.09368C5.25016 9.32805 4.8693 10.0781 5.09196 10.7988C5.31461 11.5136 6.05875 11.9179 6.79117 11.7011C8.55485 11.1796 10.3595 10.9628 12.1877 10.9042C13.9572 10.8456 15.715 10.957 17.4611 11.2499C19.6642 11.6191 21.797 12.2284 23.7482 13.3593C24.4631 13.7753 25.2834 13.582 25.6818 12.9023C26.0802 12.2284 25.8517 11.3964 25.1134 10.998C24.4279 10.6288 23.7306 10.2656 23.0158 9.97258C19.6525 8.59563 16.1193 8.14446 12.1759 8.16204ZM12.2755 13.1835C11.7423 13.2245 10.7814 13.2538 9.83805 13.3945C8.84781 13.5409 7.8693 13.7695 6.89078 14.0156C6.15836 14.1972 5.81852 14.9589 6.12321 15.6034C6.38688 16.1484 6.92594 16.371 7.57633 16.1835C9.94938 15.4921 12.3752 15.3398 14.8185 15.6034C17.3966 15.8788 19.8459 16.5761 22.09 17.9238C22.6466 18.2577 23.3263 18.0702 23.6486 17.537C23.9767 16.9921 23.8009 16.3007 23.2326 15.9609C22.84 15.7265 22.4416 15.498 22.0314 15.2988C19.0959 13.8398 15.9611 13.2304 12.2755 13.1835ZM21.9845 21.0468C21.9904 20.6777 21.8205 20.3964 21.5041 20.2382C20.5841 19.787 19.6818 19.2949 18.7267 18.9374C16.7111 18.1757 14.6076 17.9413 12.4572 17.9823C10.7697 18.0175 9.11149 18.2519 7.47086 18.6093C6.87906 18.7382 6.53922 19.1894 6.65055 19.6874C6.77946 20.2616 7.22477 20.5253 7.85172 20.3847C9.92008 19.9335 12.006 19.6874 14.1271 19.8339C15.6271 19.9394 17.092 20.2089 18.4806 20.7831C19.2013 21.082 19.8869 21.4511 20.5783 21.8085C21.258 22.1659 21.9845 21.7792 21.9845 21.0468Z" fill="white"></path> </svg> 