<?xml version="1.0" encoding="UTF-8"?> <svg xmlns="http://www.w3.org/2000/svg" width="56" height="52" viewBox="0 0 56 52" fill="none"> <path d="M16.5003 0C12.9103 0 10.0003 2.9385 10.0003 6.5625V7.5C10.0003 11.124 12.7863 15 16.5003 15C20.2143 15 23.0003 11.124 23.0003 7.5V6.5625C23.0003 2.9385 20.0903 0 16.5003 0ZM35.637 0L34.7483 7.42969C34.7483 7.42969 33.596 7.40748 33.012 7.39648C31.367 7.36548 30.0243 7.87442 30.0003 9.10742C29.9763 10.3404 30.9481 11.8261 33.1741 11.8691C35.1831 11.9071 36.0893 9.95427 36.2093 8.94727C36.3293 7.94327 36.9554 3.00391 36.9554 3.00391C40.2374 2.87791 40.9691 1.5928 40.9691 1.5918L40.4007 0.0917969L35.637 0ZM48.9847 5.49609L46.0823 9.9668C46.0823 9.9668 45.3527 9.59139 44.9827 9.40039C43.9417 8.86339 42.9248 8.76587 42.5218 9.54688C42.1188 10.3279 42.2729 11.5816 43.6819 12.3086C44.9539 12.9646 46.1464 12.0025 46.5394 11.3965C46.9304 10.7925 48.8831 7.83203 48.8831 7.83203C51.0201 8.78203 51.8909 8.18945 51.8909 8.18945L52.0003 7.05273L48.9847 5.49609ZM17.0003 8C18.3263 8 20.0003 8.218 20.0003 9C20.0003 9.782 19.2983 12 17.0003 12C14.7023 12 14.0003 9.783 14.0003 9C14.0003 8.217 15.6743 8 17.0003 8ZM15.9222 18.9102C11.3952 18.9102 7.42629 19.9787 5.20929 20.7227C4.06129 21.1087 3.21182 22.0727 2.97882 23.2617L0.125303 37.8242C-0.236697 39.6712 0.19385 41.5846 1.31085 43.0996L5.76397 49.1367L6.0003 52H27.0003V29.6484L34.471 32.3672C35.554 32.7612 36.746 32.7237 37.803 32.2637L47.8714 27.3477L50.6175 27.1875L54.471 25.4961C55.124 25.1561 55.481 24.4301 55.348 23.7051L55.0433 21.9609C54.9273 21.3289 54.3522 20.8855 53.7112 20.9355L50.889 21.0352L49.5823 20.6953C48.9143 20.5213 48.2031 20.6839 47.6761 21.1289L46.2952 22.2949L36.2425 25.3965L27.2894 20.123C26.5324 19.677 25.6945 19.3847 24.8245 19.2617L22.3284 18.9102H15.9222Z" fill="white"></path> </svg> 