<?xml version="1.0" encoding="UTF-8"?> <svg xmlns="http://www.w3.org/2000/svg" width="54" height="42" viewBox="0 0 54 42" fill="none"> <path d="M2 0C0.895 0 0 0.895 0 2V40C0 41.105 0.895 42 2 42H8.59961L10.5723 35.4258C10.8263 34.5798 11.6053 34 12.4883 34H41.5117C42.3947 34 43.1737 34.5798 43.4277 35.4258L45.4004 42H52C53.105 42 54 41.105 54 40V2C54 0.895 53.105 0 52 0H2ZM5 14H12.4082C10.3691 15.2234 9 17.449 9 20C9 22.551 10.3691 24.7766 12.4082 26H5V14ZM19.5918 14H31.3047C29.876 15.593 29 17.6915 29 20C29 22.3081 29.876 24.4069 31.3047 26H19.5918C21.6309 24.7766 23 22.551 23 20C23 17.449 21.6309 15.2234 19.5918 14ZM44.6953 14H49V26H44.6953C46.124 24.4069 47 22.3081 47 20C47 17.6915 46.124 15.593 44.6953 14ZM16 17C17.657 17 19 18.343 19 20C19 21.657 17.657 23 16 23C14.343 23 13 21.657 13 20C13 18.343 14.343 17 16 17ZM38 17C39.657 17 41 18.343 41 20C41 21.657 39.657 23 38 23C36.343 23 35 21.657 35 20C35 18.343 36.343 17 38 17ZM14 37C13.4696 37 12.9609 37.2107 12.5858 37.5858C12.2107 37.9609 12 38.4696 12 39C12 39.5304 12.2107 40.0391 12.5858 40.4142C12.9609 40.7893 13.4696 41 14 41C14.5304 41 15.0391 40.7893 15.4142 40.4142C15.7893 40.0391 16 39.5304 16 39C16 38.4696 15.7893 37.9609 15.4142 37.5858C15.0391 37.2107 14.5304 37 14 37ZM20.5 37C20.1022 37 19.7206 37.158 19.4393 37.4393C19.158 37.7206 19 38.1022 19 38.5C19 38.8978 19.158 39.2794 19.4393 39.5607C19.7206 39.842 20.1022 40 20.5 40C20.8978 40 21.2794 39.842 21.5607 39.5607C21.842 39.2794 22 38.8978 22 38.5C22 38.1022 21.842 37.7206 21.5607 37.4393C21.2794 37.158 20.8978 37 20.5 37ZM33.5 37C33.1022 37 32.7206 37.158 32.4393 37.4393C32.158 37.7206 32 38.1022 32 38.5C32 38.8978 32.158 39.2794 32.4393 39.5607C32.7206 39.842 33.1022 40 33.5 40C33.8978 40 34.2794 39.842 34.5607 39.5607C34.842 39.2794 35 38.8978 35 38.5C35 38.1022 34.842 37.7206 34.5607 37.4393C34.2794 37.158 33.8978 37 33.5 37ZM40 37C39.4696 37 38.9609 37.2107 38.5858 37.5858C38.2107 37.9609 38 38.4696 38 39C38 39.5304 38.2107 40.0391 38.5858 40.4142C38.9609 40.7893 39.4696 41 40 41C40.5304 41 41.0391 40.7893 41.4142 40.4142C41.7893 40.0391 42 39.5304 42 39C42 38.4696 41.7893 37.9609 41.4142 37.5858C41.0391 37.2107 40.5304 37 40 37Z" fill="white"></path> </svg> 