<?xml version="1.0" encoding="UTF-8"?> <svg xmlns="http://www.w3.org/2000/svg" width="56" height="52" viewBox="0 0 56 52" fill="none"> <path d="M20 0C8.954 0 0 8.954 0 20C0 23.266 0.799319 26.3397 2.1875 29.0625L0 40L10.9375 37.8125C13.6603 39.2007 16.734 40 20 40C31.046 40 40 31.046 40 20C40 8.954 31.046 0 20 0ZM40.7148 12.582C41.5448 14.9 42 17.397 42 20C42 22.027 41.7459 24.044 41.2539 26H47V30H39.8691C39.0751 31.775 38.0608 33.457 36.8398 35H47V39H32.7578C29.3498 41.598 25.0518 43.3753 19.9258 43.8633C23.5688 48.7913 29.402 52 36 52C39.266 52 42.3397 51.2007 45.0625 49.8125L56 52L53.8125 41.0625C55.2007 38.3397 56 35.266 56 32C56 22.581 49.4808 14.705 40.7148 12.582ZM9 14H31V18H9V14ZM9 23H25V27H9V23Z" fill="white"></path> </svg> 