<?xml version="1.0" encoding="UTF-8"?> <svg xmlns="http://www.w3.org/2000/svg" width="56" height="42" viewBox="0 0 56 42" fill="none"> <path d="M0 0V40C0 41.105 0.895 42 2 42H54C55.105 42 56 41.105 56 40V0H0ZM4 6H24V12H4V6ZM33 7C34.105 7 35 7.895 35 9C35 10.105 34.105 11 33 11C31.895 11 31 10.105 31 9C31 7.895 31.895 7 33 7ZM40 7C41.105 7 42 7.895 42 9C42 10.105 41.105 11 40 11C38.895 11 38 10.105 38 9C38 7.895 38.895 7 40 7ZM47 7C48.105 7 49 7.895 49 9C49 10.105 48.105 11 47 11C45.895 11 45 10.105 45 9C45 7.895 45.895 7 47 7ZM4 20H11.0801L11.5586 32H14.4414L14.9199 20H17.0801L17.5586 32H20.4414L20.9199 20H29.0801L29.5586 32H32.4414L32.9199 20H35.0801L35.5586 32H38.4414L38.9199 20H41.0801L41.5586 32H44.4414L44.9199 20H52V38H4V20Z" fill="white"></path> </svg> 