<?xml version="1.0" encoding="UTF-8"?> <svg xmlns="http://www.w3.org/2000/svg" width="29" height="60" viewBox="0 0 29 60" fill="none"> <path d="M17.7439 0C17.7439 0 7.13256 5.07924 11.5076 19.7402C11.6236 20.1292 11.779 20.8233 11.99 21.7383C4.42598 26.0713 -0.159094 33.2221 1.03491 38.7051C2.14291 43.7921 6.7402 49.4575 17.6892 47.9355C17.7612 48.2675 17.82 48.5355 17.863 48.7305C18.778 52.8975 17.9986 55.4914 15.5466 56.4414C14.8698 56.7032 14.237 56.7504 13.656 56.6758C14.1074 56.1135 14.3907 55.4351 14.4734 54.7187C14.556 54.0024 14.4346 53.2773 14.1231 52.6269C13.8116 51.9766 13.3227 51.4275 12.7128 51.0429C12.1028 50.6583 11.3966 50.4539 10.6755 50.4531C9.93676 50.4528 9.21369 50.6663 8.59359 51.0678C7.97349 51.4694 7.48287 52.0419 7.18095 52.7161C6.87904 53.3904 6.77873 54.1376 6.89213 54.8676C7.00554 55.5976 7.32782 56.2792 7.82006 56.8301C7.82201 56.832 7.82397 56.834 7.82592 56.8359C8.86813 58.2686 11.287 60 14.1384 60C18.6464 60 22.7922 55.8813 21.0662 48.0273L14.8181 19.4297L14.8162 19.4336C12.6672 11.5306 17.6521 6.74414 17.6521 6.74414C17.6521 6.74414 19.3479 8.6938 19.3689 11.2168C19.3789 12.4718 19.1213 14.4797 16.8083 17.3047L18.2107 23.2754C22.7167 18.1954 22.4888 12.465 22.4978 10.707C22.5308 4.11403 17.7439 0 17.7439 0ZM13.1521 27.0918L13.9353 30.5996C8.4793 33.9426 9.52222 39.3162 10.4802 41.5352L12.3708 40.6562C12.3108 40.5173 11.5115 36.9818 14.8865 34.8828L17.0017 44.7266C9.8077 46.1736 6.72923 41.3639 6.27123 38.5859C5.62323 34.6589 7.32109 31.3128 13.1521 27.0918ZM20.6326 29.0859C20.263 29.073 19.9076 29.0794 19.574 29.0977L20.6482 33.668C21.7132 33.991 22.7757 34.7206 23.1677 36.3086C23.6927 38.4336 23.1803 40.0883 22.4353 41.2793L23.406 45.4219C26.072 43.5479 29.6122 39.896 27.8552 34.418C26.5007 30.1943 23.2196 29.1766 20.6326 29.0859Z" fill="white"></path> </svg> 