<?xml version="1.0" encoding="UTF-8"?> <svg xmlns="http://www.w3.org/2000/svg" width="52" height="44" viewBox="0 0 52 44" fill="none"> <path d="M0 0V4H52V0H0ZM25.9668 6L23.9668 26H19.3008C14.8828 26 11.3008 27.434 11.3008 30.748C11.3008 34.061 13.9868 38 19.9668 38C25.3648 38 27.6958 32.711 27.9668 30C28.2358 27.299 29.666 14 29.666 14C38.472 13.492 40.3672 10 40.3672 10L38.7676 6H25.9668ZM0 10V14H20.0488L20.498 10H0ZM46.2422 10L41.7578 14H52V10H46.2422ZM0 20V24H18.7715L19.2285 20H0ZM52 20L33.1348 20.1348L32.8652 23.8652L52 24V20ZM0 30V34H7.44727L6.55273 30H0ZM52 30L32.4668 30.2246L32.0195 33.7773L52 34V30ZM0 40V44H52V40H0Z" fill="white"></path> </svg> 