<?xml version="1.0" encoding="UTF-8"?> <svg xmlns="http://www.w3.org/2000/svg" width="52" height="40" viewBox="0 0 52 40" fill="none"> <path d="M50.456 5.442C50.117 4.002 49.035 2.847 47.59 2.389C43.761 1.174 35.454 0 26 0C16.546 0 8.239 1.174 4.409 2.389C2.964 2.847 1.882 4.002 1.543 5.442C0.903 8.161 0 13.203 0 20C0 26.797 0.903 31.839 1.544 34.558C1.883 35.998 2.965 37.153 4.41 37.611C8.239 38.826 16.546 40 26 40C35.454 40 43.761 38.826 47.591 37.611C49.036 37.153 50.118 35.998 50.457 34.558C51.097 31.839 52 26.797 52 20C52 13.203 51.097 8.161 50.456 5.442ZM21 28V12L35.857 20L21 28Z" fill="white"></path> </svg> 