<?xml version="1.0" encoding="UTF-8"?> <svg xmlns="http://www.w3.org/2000/svg" width="55" height="52" viewBox="0 0 55 52" fill="none"> <path d="M49 0L41 3L41.0078 7.13672L26.4785 21.2637C26.4785 21.2637 24.7566 22.1805 23.7656 21.1895C21.0446 18.4685 26 13 26 13C26 13 21.868 13.132 19 16C16.433 18.567 16.448 21.552 14 24C10.977 27.023 6.666 26.334 3 30C1.974 31.026 0 33.464 0 36C0 43.556 6.031 52 15.5 52C26.084 52 23.9745 40.3038 26.0605 38.2168C29.1255 35.1518 35 36.923 35 30C35 30 32.9446 30.4118 31.1016 29.5488L24.4355 34.9219L22.8008 33.1895L45.0566 10.2949L47 10L55 2L49 0ZM14.7266 33.4023L18.2012 36.8789L16.7559 38.3242L13.2793 34.8496L14.7266 33.4023ZM10.4844 37.6445L13.9609 41.1191L12.0664 43.0117L8.5918 39.5371L10.4844 37.6445Z" fill="white"></path> </svg> 