<?xml version="1.0" encoding="UTF-8"?> <svg xmlns="http://www.w3.org/2000/svg" width="44" height="42" viewBox="0 0 44 42" fill="none"> <path d="M7.15625 0.5625L6.375 2.53851L30.5938 9.15625H39.1875L7.15625 0.5625ZM4.03125 10.7188C2.30547 10.7188 0.90625 12.118 0.90625 13.8438V40.4062C0.90625 41.2695 1.60547 41.9688 2.46875 41.9688H41.5312C42.3945 41.9688 43.0938 41.2695 43.0938 40.4062V13.8438C43.0938 12.118 41.6945 10.7188 39.9688 10.7188H4.03125ZM13.2521 17.0817C13.899 17.0817 14.424 17.6059 14.424 18.2535C14.424 18.9004 13.8998 19.4254 13.2521 19.4254C12.6045 19.4254 12.0803 18.9012 12.0803 18.2535C12.0803 17.6059 12.6053 17.0817 13.2521 17.0817ZM17.6497 17.5226C17.8749 17.5067 18.1062 17.5555 18.3165 17.6768C18.8767 18.0002 19.0703 18.7165 18.7468 19.2774C18.4234 19.8376 17.7056 20.0296 17.1447 19.7062C16.5837 19.3827 16.3924 18.6657 16.7159 18.1055C16.918 17.7554 17.2745 17.5492 17.6497 17.5226ZM9.23602 18.9432C9.61132 18.9698 9.96771 19.176 10.1699 19.5261C10.4933 20.0863 10.3012 20.8033 9.74109 21.1268C9.18093 21.4502 8.46388 21.2582 8.14044 20.698C7.817 20.1378 8.00906 19.4208 8.56921 19.0974C8.77927 18.9761 9.01085 18.9273 9.23602 18.9432ZM28.25 19.3125H39.1875V24H32.1562V20.3638L30.5938 20.0938V24H28.25V19.3125ZM21.4705 20.1426C21.8457 20.1692 22.2017 20.3754 22.4044 20.7255C22.7278 21.2856 22.5357 22.0027 21.9756 22.3261C21.4154 22.6495 20.6999 22.4575 20.3765 21.8973C20.0522 21.3364 20.2436 20.6201 20.8037 20.2967C21.0138 20.1754 21.2454 20.1266 21.4705 20.1426ZM13.156 21.2549C13.8029 21.2549 14.3279 21.7799 14.3279 22.4268C14.3279 23.0737 13.8029 23.5987 13.156 23.5987C12.5091 23.5987 11.9841 23.0745 11.9841 22.4268C11.9841 21.7792 12.5083 21.2549 13.156 21.2549ZM16.7128 21.4716C17.0126 21.4716 17.3125 21.586 17.5414 21.8149C17.9992 22.2728 17.9992 23.0142 17.5414 23.472C17.0836 23.9291 16.3421 23.9291 15.8843 23.472C15.4265 23.0142 15.4265 22.2728 15.8843 21.8149C16.1132 21.586 16.413 21.4716 16.7128 21.4716ZM6.45282 22.6023C6.67798 22.5863 6.9108 22.6351 7.12115 22.7564C7.68131 23.0798 7.87336 23.7961 7.54993 24.3571C7.22649 24.9172 6.51022 25.1093 5.94928 24.7858C5.38912 24.4624 5.19707 23.7461 5.52051 23.1852C5.72266 22.8351 6.07756 22.6289 6.45282 22.6023ZM10.4872 23.617C10.7871 23.617 11.0869 23.7318 11.3158 23.9603C11.7736 24.4181 11.7736 25.1596 11.3158 25.6174C10.858 26.0752 10.1165 26.0752 9.65869 25.6174C9.20088 25.1596 9.20088 24.4181 9.65869 23.9603C9.88721 23.7318 10.1873 23.617 10.4872 23.617ZM19.0749 24.1404C19.7225 24.1404 20.2468 24.6646 20.2468 25.3123C20.2468 25.9591 19.7218 26.4841 19.0749 26.4841C18.428 26.4841 17.903 25.9599 17.903 25.3123C17.903 24.6654 18.428 24.1404 19.0749 24.1404ZM23.2497 24.2365C23.8966 24.2365 24.4216 24.7607 24.4216 25.4084C24.4208 26.0553 23.8966 26.5803 23.2497 26.5803C22.6028 26.5803 22.0778 26.056 22.0778 25.4084C22.0778 24.7615 22.602 24.2365 23.2497 24.2365ZM14.5781 25.5625C15.225 25.5625 15.75 26.0875 15.75 26.7344C15.75 27.3813 15.225 27.9062 14.5781 27.9062C13.9312 27.9062 13.4062 27.3813 13.4062 26.7344C13.4062 26.0875 13.9312 25.5625 14.5781 25.5625ZM6.09729 27.0777C6.74416 27.0777 7.26917 27.6019 7.26917 28.2496C7.26917 28.8964 6.74495 29.4214 6.09729 29.4214C5.44963 29.4214 4.92542 28.8964 4.92542 28.2496C4.92542 27.6027 5.44963 27.0777 6.09729 27.0777ZM10.2706 27.1738C10.9174 27.1738 11.4424 27.6988 11.4424 28.3457C11.4424 28.9926 10.9174 29.5176 10.2706 29.5176C9.62369 29.5176 9.09869 28.9934 9.09869 28.3457C9.09869 27.6988 9.62369 27.1738 10.2706 27.1738ZM18.8567 27.6972C19.1565 27.6972 19.4563 27.8116 19.6852 28.0405C20.1431 28.4983 20.1431 29.2398 19.6852 29.6976C19.2274 30.1554 18.4875 30.1554 18.0297 29.6976C17.5718 29.2398 17.5718 28.4983 18.0297 28.0405C18.2586 27.8116 18.5569 27.6972 18.8567 27.6972ZM33.7188 28.6875C35.4445 28.6875 36.8438 30.0867 36.8438 31.8125C36.8438 33.5383 35.4445 34.9375 33.7188 34.9375C31.993 34.9375 30.5938 33.5383 30.5938 31.8125C30.5938 30.0867 31.993 28.6875 33.7188 28.6875ZM22.7294 28.718C22.9545 28.7021 23.1858 28.7508 23.3962 28.8721C23.9571 29.1956 24.1499 29.9126 23.8265 30.4728C23.503 31.0329 22.7852 31.225 22.2243 30.9016C21.6641 30.5781 21.4721 29.8618 21.7955 29.3009C21.9977 28.9508 22.3541 28.7446 22.7294 28.718ZM12.6326 29.8411C12.9324 29.8411 13.2323 29.957 13.4612 30.1859C13.919 30.6437 13.919 31.3845 13.4612 31.8415C13.0034 32.2993 12.2619 32.2993 11.8041 31.8415C11.3463 31.3837 11.3463 30.6437 11.8041 30.1859C12.033 29.957 12.3328 29.8411 12.6326 29.8411ZM16.1895 30.0593C16.8363 30.0593 17.3613 30.5843 17.3613 31.2311C17.3613 31.8788 16.8371 32.403 16.1895 32.403C15.5426 32.403 15.0176 31.878 15.0176 31.2311C15.0176 30.5843 15.5426 30.0593 16.1895 30.0593ZM8.03668 31.1793C8.41175 31.2058 8.76684 31.412 8.96899 31.7621C9.29321 32.3223 9.1019 33.0386 8.54175 33.3628C7.98159 33.6862 7.26532 33.4942 6.9411 32.934C6.61766 32.3739 6.80972 31.6568 7.36987 31.3334C7.57993 31.2121 7.81164 31.1633 8.03668 31.1793ZM20.2727 32.3771C20.648 32.4036 21.0044 32.6099 21.2065 32.96C21.53 33.5201 21.3379 34.2364 20.7778 34.5606C20.2176 34.884 19.5006 34.692 19.1771 34.1318C18.8537 33.5717 19.0457 32.8554 19.6059 32.5312C19.816 32.4099 20.0475 32.3611 20.2727 32.3771ZM11.5325 33.7977C11.7576 33.7817 11.9905 33.8305 12.2008 33.9518C12.761 34.2752 12.953 34.9915 12.6296 35.5524C12.3061 36.1126 11.5899 36.3062 11.0289 35.9827C10.4688 35.6593 10.2767 34.9415 10.6002 34.3806C10.8023 34.0305 11.1572 33.8242 11.5325 33.7977ZM16.0933 34.2325C16.7402 34.2325 17.2652 34.7568 17.2652 35.4044C17.2652 36.0521 16.7402 36.5763 16.0933 36.5763C15.4464 36.5763 14.9214 36.0521 14.9214 35.4044C14.9214 34.7575 15.4457 34.2325 16.0933 34.2325Z" fill="white"></path> </svg> 