<?xml version="1.0" encoding="UTF-8"?> <svg xmlns="http://www.w3.org/2000/svg" width="60" height="52" viewBox="0 0 60 52" fill="none"> <path d="M6.68359 0.951208C5.0118 0.94963 4 1.00004 4 1.00004V7.12894C1.51 7.58094 0 8.00004 0 8.00004V50C0 50 11.8616 46.4637 25 48.8223V51C25 51 27 52 30 52C33 52 35 51 35 51V48.8223C48.1384 46.4637 60 50 60 50V8.00004C60 8.00004 58.49 7.58094 56 7.12894V1.00004C56 1.00004 39.801 0.193755 30 5.13675C22.6493 1.4295 11.699 0.955942 6.68359 0.951208ZM7 5.00004C25 5.00004 30 9.00004 30 9.00004C30 9.00004 35 5.00004 53 5.00004V42C35 42 30 46 30 46C30 46 25 42 7 42V5.00004ZM40.0215 12C38.2255 12 37 13.3455 37 14.9805C37 16.7265 38.2255 18 40.0215 18C41.5555 18 43 16.7265 43 14.9805C43 13.3455 41.5555 12 40.0215 12ZM42 20L35 21V24H38V33L34 34V37H46V34L42 33V20Z" fill="white"></path> </svg> 