<?xml version="1.0" encoding="UTF-8"?> <svg xmlns="http://www.w3.org/2000/svg" width="57" height="53" viewBox="0 0 57 53" fill="none"> <path d="M10.4864 0C8.55338 0 6.98638 1.567 6.98638 3.5V4C6.98638 5.933 8.48638 8 10.4864 8C12.4864 8 13.9864 5.933 13.9864 4V3.5C13.9864 1.567 12.4194 0 10.4864 0ZM16 0V6H52V33H19V36V38H47.5586C48.4196 38 49.1831 37.4498 49.4551 36.6328L49.6661 36H55V6H57V0H16ZM10.4883 11C7.79033 11 5.42556 11.6361 4.10356 12.0801C3.41956 12.3101 2.91249 12.8857 2.77349 13.5938L1.07231 22.2715C0.856313 23.3725 1.11334 24.513 1.77934 25.416L4.43364 29.0137L4.03325 50.4824L3.55083 50.7246C3.21383 50.8936 3.00005 51.2373 3.00005 51.6133V53H7.08794C7.59994 53 8.02808 52.6145 8.08208 52.1055L9.98833 34H10.9883L12.8946 52.1055C12.9486 52.6145 13.3767 53 13.8887 53H18V51.6133C18 51.2363 17.7863 50.8926 17.4493 50.7246L16.9825 50.4902L16.9063 18.5977L21.4805 21.6602C21.8105 21.8812 22.1978 22 22.5938 22H31.7833C32.2473 22 32.6519 21.6805 32.7579 21.2285L32.9668 20.3301C33.0948 19.7821 32.7464 19.237 32.1954 19.123L30.9512 18.8652L30.4317 18.4551C30.1827 18.2581 29.8549 18.1904 29.5489 18.2734L28.3106 18.6094L23.4864 18L18.2735 12.7852C18.0775 12.5892 17.8498 12.4379 17.5918 12.3379C16.5858 11.9499 13.7853 11 10.4883 11ZM39 40L46 53H49L45.1543 40H39Z" fill="white"></path> </svg> 