<?xml version="1.0" encoding="UTF-8"?> <svg xmlns="http://www.w3.org/2000/svg" width="42" height="43" viewBox="0 0 42 43" fill="none"> <path d="M38.6941 0.677734L33.6419 5.18976C30.1932 3.62372 25.8273 2.68732 21 2.68732C9.61016 2.68732 0.6875 7.83497 0.6875 14.4061C0.6875 17.2858 2.40138 19.8916 5.28497 21.9103C5.6256 21.6197 6.06328 21.4373 6.54688 21.4373C7.62578 21.4373 8.5 22.3115 8.5 23.3904C8.5 23.4928 8.48511 23.5919 8.46948 23.6895C11.3687 24.9833 14.9117 25.8303 18.8195 26.0607C19.1601 25.1857 20.0047 24.5623 21 24.5623C21.9953 24.5623 22.8399 25.1857 23.1805 26.0607C27.0883 25.8303 30.6313 24.984 33.5305 23.6895C33.5149 23.5919 33.5 23.4928 33.5 23.3904C33.5 22.3115 34.3742 21.4373 35.4531 21.4373C35.9367 21.4373 36.3744 21.6197 36.715 21.9103C39.5986 19.8916 41.3125 17.2858 41.3125 14.4061C41.3125 12.0975 40.2071 9.96511 38.2836 8.1698L35.6423 9.97644C37.2509 11.2788 38.1875 12.7998 38.1875 14.4061C38.1875 19.0647 30.3164 22.9998 21 22.9998C11.6836 22.9998 3.8125 19.0647 3.8125 14.4061C3.8125 9.74747 11.6836 5.81232 21 5.81232C24.7228 5.81232 28.2029 6.44791 31.054 7.49994L24.9154 12.9809C24.6618 12.89 24.3944 12.8436 24.125 12.8436C23.5034 12.8436 22.9073 13.0905 22.4677 13.53C22.0282 13.9696 21.7812 14.5657 21.7812 15.1873C21.7812 15.8089 22.0282 16.4051 22.4677 16.8446C22.9073 17.2841 23.5034 17.5311 24.125 17.5311C24.468 17.5306 24.8068 17.4548 25.1173 17.3091C25.4279 17.1633 25.7027 16.9512 25.9223 16.6877C26.1419 16.4241 26.3009 16.1156 26.3882 15.7838C26.4756 15.4521 26.489 15.1052 26.4276 14.7677L40.7296 3.05048C40.7296 3.05048 40.9042 2.5938 40.0643 1.63599C39.2245 0.678174 38.6941 0.677734 38.6941 0.677734ZM0.79126 19.6917C0.79126 19.6917 0.700671 29.7456 0.692078 30.6292C0.666296 33.4761 2.4031 36.1009 5.31091 38.1579L5.43604 24.2892C2.04229 22.0275 0.79126 19.6917 0.79126 19.6917ZM41.3934 22.4017C41.3934 22.4017 39.7776 23.7974 36.6799 25.249L36.5609 38.4402C39.5054 36.4363 41.2906 33.8431 41.3156 30.9954C41.3234 30.1118 41.3934 22.4017 41.3934 22.4017ZM7.7691 25.635L7.64246 39.5541C10.8206 41.1767 14.8712 42.2425 19.3353 42.4792L19.4619 28.4228C14.3986 28.1837 10.5839 27.0311 7.7691 25.635ZM34.327 26.2316C31.3294 27.3488 27.3994 28.299 22.5869 28.438L22.4603 42.5067C26.9282 42.3512 30.9964 41.36 34.2034 39.7952L34.327 26.2316Z" fill="white"></path> </svg> 