<?xml version="1.0" encoding="UTF-8"?> <svg xmlns="http://www.w3.org/2000/svg" width="50" height="52" viewBox="0 0 50 52" fill="none"> <path d="M24.7505 0.75C22.2505 0.75 20.0005 1.5 19.0005 3C14.0005 0 12.0005 5 12.0005 5C10.0005 4 5.00048 6 5.00048 9C0.000482559 10 0.00048244 18 2.00048 19C-0.999518 25 3.00048 31 7.00048 31C8.00048 35 11.0005 37 13.0005 37C13.0005 37 7.00048 46 7.00048 52H11.0005C11.0005 49.713 11.0005 45 18.0005 41C21.8835 38.781 22.0005 37 22.0005 37C26.0005 38 29.0005 35 29.0005 33C32.0005 35 36.0005 33 36.0005 31C36.0005 31 41.0005 32 43.0005 28C46.0005 28.113 47.0005 26 46.0005 24C50.0005 23 50.0005 18 48.0005 16C50.0005 8 42.0005 5 39.0005 6C38.0005 3 34.0005 2 32.0005 3C30.0005 1.5 27.2505 0.75 24.7505 0.75ZM22.4321 8H25.0317C25.4067 8 25.7363 8.24647 25.8423 8.60547L26.1626 9.69141L24.6958 10.2344C25.9928 10.3364 27.2086 10.7154 28.2876 11.3184L30.6704 10.1133L32.5083 11.9512C32.7733 12.2162 32.8318 12.6241 32.6528 12.9531L32.1118 13.9473L30.6938 13.2969C31.5028 14.2459 32.1124 15.3666 32.4614 16.5996L35.0005 17.4316V20.0312C35.0005 20.4062 34.754 20.7358 34.395 20.8418L33.3091 21.1621L32.7661 19.6953C32.6641 20.9923 32.2851 22.2091 31.6821 23.2871L32.8872 25.6699L31.0493 27.5078C30.7843 27.7728 30.3774 27.8313 30.0474 27.6523L29.0513 27.1113L29.7036 25.6934C28.7546 26.5024 27.6319 27.11 26.3989 27.459L25.5688 30H22.9692C22.5942 30 22.2647 29.7535 22.1587 29.3945L21.8384 28.3086L23.3052 27.7656C22.0082 27.6636 20.7914 27.2846 19.7134 26.6816L17.3306 27.8867L15.4927 26.0488C15.2277 25.7838 15.1691 25.3769 15.3481 25.0469L15.8892 24.0508L17.3071 24.7031C16.4981 23.7541 15.8905 22.6314 15.5415 21.3984L13.0005 20.5684V17.9688C13.0005 17.5938 13.247 17.2642 13.606 17.1582L14.6919 16.8379L15.2349 18.3047C15.3369 17.0077 15.7158 15.7919 16.3188 14.7129L15.1138 12.3301L16.9517 10.4922C17.2167 10.2272 17.6246 10.1687 17.9536 10.3477L18.9477 10.8887L18.2974 12.3066C19.2464 11.4976 20.3671 10.8881 21.6001 10.5391L22.4321 8ZM24.0005 14.7695C22.8901 14.7871 21.8311 15.2406 21.0521 16.032C20.2731 16.8235 19.8365 17.8895 19.8365 19C19.8365 20.1105 20.2731 21.1765 21.0521 21.968C21.8311 22.7594 22.8901 23.2129 24.0005 23.2305C25.1109 23.2129 26.1698 22.7594 26.9488 21.968C27.7278 21.1765 28.1645 20.1105 28.1645 19C28.1645 17.8895 27.7278 16.8235 26.9488 16.032C26.1698 15.2406 25.1109 14.7871 24.0005 14.7695V14.7695Z" fill="white"></path> </svg> 