<?xml version="1.0" encoding="UTF-8"?> <svg xmlns="http://www.w3.org/2000/svg" width="30" height="30" viewBox="0 0 30 30" fill="none"> <g clip-path="url(#clip0_276_280)"> <path d="M15.1169 -0.0986328C6.84201 -0.0986328 0.133789 6.61372 0.133789 14.8933C0.133789 23.1727 6.84201 29.8853 15.1169 29.8853C23.392 29.8853 30.1005 23.1727 30.1005 14.8933C30.1005 6.61372 23.392 -0.0986328 15.1169 -0.0986328ZM23.5067 18.2713C23.5067 19.4238 22.573 20.358 21.4214 20.358C21.4214 20.358 19.6403 20.6173 15.0145 20.6173C10.3621 20.6173 8.72652 20.358 8.72652 20.358C7.57468 20.358 6.64071 19.4238 6.64071 18.2713V11.3855C6.64071 10.2333 7.57442 9.29876 8.72652 9.29876C8.72652 9.29876 10.3621 9.03954 15.0093 9.03954C19.6403 9.03954 21.4214 9.29876 21.4214 9.29876C22.573 9.29876 23.5067 10.233 23.5067 11.3855V18.2713Z" fill="white"></path> <path d="M12.7002 18.2794L18.5002 14.8941L12.7002 11.5088V18.2794Z" fill="white"></path> </g> <defs> <clipPath id="clip0_276_280"> <rect width="30" height="30" fill="white"></rect> </clipPath> </defs> </svg> 